<?xml version="1.0" encoding="UTF-8"?><svg xmlns="http://www.w3.org/2000/svg" viewBox="0 0 1000 1000"><defs><style>.cls-1{isolation:isolate;}.cls-2{mix-blend-mode:soft-light;}.cls-3{fill:none;stroke:#000;stroke-linecap:round;stroke-linejoin:round;stroke-width:.2551px;}.cls-4{fill-rule:evenodd;}</style></defs><g class="cls-1"><g id="Layer_1"><g id="HATCH"><path class="cls-4" d="m343.3408,300.0227l-174.6722,399.9547h64.7095l113.3111-259.4533,68.9239,139.318,68.9239-139.318,25.552,58.5075,44.7587-45.682-66.9624-153.3268-72.2722,146.086-72.2722-146.086m515.6,0h-83.0208l-391.8712,399.9547h83.0208l391.8712-399.9547Z"/></g><g id="HATCH-2"><polygon class="cls-4" points="613.2072 586.9781 568.4485 632.6601 597.8479 699.9773 662.5574 699.9773 613.2072 586.9781"/></g><g id="HATCH-3"><polygon class="cls-4" points="695.6162 502.8692 653.7489 545.6001 774.3982 699.9773 849.6607 699.9773 695.6162 502.8692"/></g><g id="LWPOLYLINE"><path d="m140.9423,699.9263l81.9545-202.3276c1.2445-3.0724,4.7441-4.5542,7.8165-3.3097,3.0724,1.2445,4.5542,4.7441,3.3097,7.8165-.3353.1768-92.6046,198.5334-93.0808,197.8209h0Z"/></g><g id="LWPOLYLINE-2"><path d="m222.8968,497.5986s92.7177-197.627,92.7177-197.627c.0601-.1442.3005-.0445.2338.1021,0,0-81.9545,202.3276-81.9545,202.3276-3.3202,7.394-14.1674,2.7804-10.997-4.8027h0Z"/></g><g id="LWPOLYLINE-3"><path d="m348.5354,699.8881l191.0267-204.787c2.6378-2.8279,7.0686-2.9819,9.8965-.3441,2.8278,2.6378,2.9819,7.0687.3441,9.8965-.379.0509-201.0662,196.0606-201.2673,195.2346h0Z"/></g><g id="LWPOLYLINE-4" class="cls-2"><path d="m539.5621,495.101c1.1559-.0647,199.98-197.258,201.4703-195.6026.2903.295.2917.7634.0134,1.0613l-191.4838,204.3392c-6.6907,6.6199-16.54-2.825-10-9.7979h0Z"/></g><g id="LWPOLYLINE-5"><polygon class="cls-3" points="510.0888 499.0315 554.8476 453.3495 487.8851 300.0227 415.613 446.1087 343.3408 300.0227 168.6686 699.9773 233.378 699.9773 346.6891 440.524 415.613 579.842 484.5368 440.524 510.0888 499.0315"/></g><g id="LWPOLYLINE-6"><polygon class="cls-3" points="858.9408 300.0227 775.92 300.0227 384.0487 699.9773 467.0696 699.9773 858.9408 300.0227"/></g><g id="LWPOLYLINE-7"><polygon class="cls-3" points="597.8479 699.9773 568.4485 632.6601 613.2072 586.9781 662.5574 699.9773 597.8479 699.9773"/></g><g id="LWPOLYLINE-8"><polygon class="cls-3" points="849.6607 699.9773 695.6162 502.8692 653.7489 545.6001 774.3982 699.9773 849.6607 699.9773"/></g></g></g></svg>